<?xml version="1.0" standalone="no"?>
<!DOCTYPE svg PUBLIC "-//W3C//DTD SVG 20010904//EN"
 "http://www.w3.org/TR/2001/REC-SVG-20010904/DTD/svg10.dtd">
<svg version="1.0" xmlns="http://www.w3.org/2000/svg"
 width="1024.000000pt" height="1024.000000pt" viewBox="0 0 1024.000000 1024.000000"
 preserveAspectRatio="xMidYMid meet">
<metadata>
Created by potrace 1.14, written by Peter Selinger 2001-2017
</metadata>
<g transform="translate(0.000000,1024.000000) scale(0.100000,-0.100000)"
fill="#000000" stroke="none">
<path d="M5982 9170 c2 -9 -3 -14 -11 -12 -12 3 -12 0 -1 -13 11 -13 10 -14
-5 -9 -13 5 -16 4 -11 -4 4 -7 3 -12 -3 -12 -6 0 -14 -12 -17 -26 -4 -15 -12
-23 -20 -20 -8 3 -11 -2 -9 -14 2 -11 -1 -19 -8 -17 -7 1 -11 -6 -9 -15 2 -11
-3 -18 -13 -18 -8 0 -14 -6 -12 -12 1 -7 -4 -12 -10 -10 -7 1 -12 -1 -12 -5 1
-5 1 -16 0 -27 -1 -15 -4 -16 -16 -6 -13 11 -14 10 -9 -4 3 -9 1 -16 -5 -16
-6 0 -11 -5 -11 -11 0 -5 6 -7 13 -4 6 4 0 -3 -16 -15 -15 -12 -24 -27 -21
-32 4 -7 2 -8 -5 -4 -6 4 -9 12 -6 17 6 9 -3 12 -37 12 -10 0 -18 3 -18 8 0 4
-8 6 -19 4 -10 -2 -30 2 -43 9 -16 9 -31 10 -41 5 -10 -6 -18 -5 -22 1 -5 8
-11 7 -21 -1 -11 -9 -14 -8 -14 2 0 11 -2 11 -10 -1 -5 -8 -10 -10 -10 -3 0 6
-15 11 -32 12 -18 0 -42 2 -53 4 -11 3 -26 0 -33 -6 -9 -7 -11 -6 -7 5 6 16
-20 18 -43 4 -7 -4 -12 -2 -12 4 0 7 -7 9 -16 6 -9 -4 -24 -1 -32 6 -12 10
-14 10 -8 1 4 -7 2 -13 -3 -13 -6 0 -11 6 -11 13 0 8 -4 7 -10 -3 -8 -12 -11
-13 -19 -1 -6 10 -10 10 -16 1 -6 -9 -10 -9 -16 1 -5 8 -9 9 -9 4 0 -12 -46
-12 -57 0 -5 4 -2 5 6 0 10 -5 12 -4 7 4 -4 6 -13 8 -19 4 -19 -12 -57 -11
-57 1 0 6 -4 5 -9 -2 -11 -17 -21 -17 -32 0 -7 11 -9 11 -9 -1 0 -10 -3 -11
-14 -2 -11 9 -16 9 -21 0 -6 -8 -10 -7 -16 2 -7 11 -9 11 -9 1 0 -10 -5 -10
-22 -1 -21 11 -22 11 -9 -4 17 -21 8 -22 -13 -1 -10 10 -16 11 -16 3 0 -8 -5
-8 -17 2 -15 12 -16 12 -11 -3 8 -19 -19 -19 -32 1 -6 11 -9 11 -13 0 -4 -12
-7 -11 -16 1 -8 12 -11 12 -11 1 0 -10 -3 -11 -14 -2 -11 9 -15 9 -19 -1 -4
-10 -7 -10 -15 1 -7 9 -11 10 -14 1 -2 -7 -31 -12 -78 -13 -41 -2 -81 -6 -87
-10 -8 -5 -13 -3 -13 3 0 7 -6 8 -17 2 -10 -5 -23 -7 -30 -5 -6 2 -14 -1 -18
-7 -5 -8 -11 -8 -21 1 -10 8 -14 8 -14 1 0 -6 -6 -9 -14 -6 -8 3 -24 0 -36 -6
-18 -10 -21 -10 -14 2 5 8 0 7 -18 -4 -16 -11 -29 -13 -35 -7 -6 6 -14 4 -23
-6 -7 -8 -18 -15 -24 -15 -6 0 -4 5 4 11 12 9 11 9 -5 3 -11 -4 -28 -7 -37 -8
-10 0 -18 -4 -18 -9 0 -4 -4 -5 -10 -2 -5 3 -16 3 -22 -2 -18 -11 -42 -10 -50
2 -4 6 -8 1 -8 -9 0 -11 -3 -16 -7 -13 -3 4 -13 1 -21 -6 -13 -10 -15 -9 -9 8
7 18 6 19 -6 3 -8 -10 -17 -15 -21 -11 -3 4 -12 -2 -20 -12 -9 -13 -15 -15
-20 -6 -6 9 -11 9 -24 -1 -13 -11 -15 -11 -8 2 4 8 0 6 -8 -4 -12 -15 -16 -16
-16 -5 -1 11 -3 10 -10 -3 -7 -10 -17 -14 -32 -10 -13 3 -19 1 -15 -6 4 -6 0
-9 -10 -8 -10 2 -21 -2 -25 -8 -5 -8 -8 -7 -8 2 0 7 -5 10 -10 7 -6 -4 -7 -12
-3 -18 4 -7 0 -6 -10 2 -13 10 -17 10 -17 1 0 -7 -7 -10 -15 -6 -8 3 -19 -2
-24 -12 -8 -14 -10 -14 -11 -2 0 13 -2 13 -9 1 -5 -8 -22 -16 -38 -18 -15 -2
-32 -9 -38 -16 -5 -7 -16 -12 -22 -13 -38 -3 -44 -5 -39 -12 2 -4 -3 -9 -12
-10 -51 -5 -67 -11 -64 -22 2 -10 -1 -10 -14 1 -12 9 -15 9 -10 2 6 -11 -5
-18 -19 -10 -2 1 -11 -7 -19 -18 -8 -11 -18 -17 -22 -12 -4 4 -2 7 4 7 7 0 12
6 12 13 -1 6 -10 1 -20 -12 -12 -14 -20 -18 -20 -10 0 11 -2 11 -10 -1 -5 -8
-10 -11 -10 -6 0 6 -7 1 -15 -10 -13 -16 -16 -17 -25 -4 -8 13 -10 12 -10 -3
0 -10 -4 -15 -10 -12 -5 3 -10 0 -10 -7 0 -10 -2 -10 -9 1 -7 11 -10 9 -16 -8
-6 -19 -9 -20 -23 -9 -9 7 -13 8 -10 3 4 -6 3 -17 -3 -25 -7 -12 -9 -12 -9 -1
0 11 -3 11 -15 1 -8 -6 -20 -8 -26 -4 -8 4 -9 3 -5 -4 4 -7 2 -12 -4 -12 -6 0
-9 -4 -6 -8 3 -5 -1 -9 -9 -9 -8 0 -11 5 -8 10 3 6 -5 2 -19 -9 -14 -10 -23
-23 -20 -28 3 -5 0 -6 -7 -2 -7 4 -20 -2 -32 -16 -11 -13 -18 -17 -14 -10 3 6
2 12 -3 12 -6 0 -12 -7 -16 -15 -3 -8 -9 -15 -13 -14 -20 3 -34 -2 -28 -11 5
-9 -15 -15 -38 -11 -4 0 -6 -5 -5 -11 2 -7 -3 -12 -10 -10 -7 1 -15 -5 -18
-13 -3 -8 -10 -12 -15 -9 -12 7 -40 -21 -31 -32 4 -5 -2 -2 -13 6 -11 8 -17
11 -13 6 9 -11 -24 -44 -39 -38 -7 2 -13 0 -13 -4 0 -5 -14 -15 -30 -22 -17
-8 -27 -18 -24 -24 4 -7 2 -8 -4 -4 -6 4 -20 -2 -32 -14 -11 -11 -20 -18 -20
-15 0 3 -12 -7 -27 -23 -16 -15 -23 -21 -18 -12 6 9 -5 0 -23 -19 -19 -20 -31
-30 -26 -22 5 9 3 12 -4 7 -7 -4 -12 -15 -12 -24 0 -14 -2 -14 -9 -3 -7 11
-10 9 -16 -8 -4 -13 -9 -20 -12 -17 -3 3 -17 -7 -31 -22 -14 -15 -35 -32 -46
-37 -11 -6 -26 -22 -33 -35 -7 -14 -13 -19 -13 -12 0 7 -5 10 -10 7 -6 -4 -8
-10 -5 -15 7 -11 -30 -32 -39 -22 -4 3 -4 -2 0 -12 5 -13 4 -17 -4 -12 -6 3
-16 -3 -22 -14 -6 -11 -18 -20 -26 -20 -8 0 -13 -4 -10 -9 3 -5 -1 -12 -10
-15 -8 -3 -12 -11 -8 -17 4 -8 3 -9 -5 -5 -6 4 -14 0 -17 -8 -3 -9 -13 -16
-21 -16 -8 0 -11 -4 -8 -10 3 -5 1 -10 -6 -10 -7 0 -10 -3 -6 -6 3 -3 -7 -19
-23 -34 -16 -15 -26 -32 -22 -36 4 -5 -2 -2 -12 6 -18 14 -19 14 -7 -9 8 -14
9 -21 2 -17 -12 8 -46 -8 -46 -21 0 -4 -4 -7 -8 -5 -5 1 -6 -2 -3 -7 4 -5 0
-16 -8 -24 -8 -8 -12 -18 -8 -22 4 -5 2 -5 -4 -2 -6 4 -20 -1 -30 -9 -10 -9
-13 -13 -6 -9 6 3 12 2 12 -3 0 -10 -29 -26 -42 -24 -4 1 -5 -5 -2 -12 3 -9
-5 -22 -20 -31 -14 -10 -23 -21 -20 -26 3 -5 -2 -9 -10 -9 -10 0 -13 -6 -10
-15 4 -10 0 -15 -11 -15 -11 0 -15 -5 -11 -16 3 -8 2 -12 -3 -9 -5 3 -12 1
-16 -5 -4 -6 -11 -7 -17 -4 -6 4 -5 -3 2 -16 8 -14 8 -20 1 -16 -6 4 -18 -2
-27 -13 -9 -10 -24 -17 -33 -14 -14 4 -14 3 -1 -6 11 -7 19 -6 31 5 13 12 19
12 25 3 4 -7 3 -10 -3 -6 -11 7 -49 -33 -45 -47 2 -5 -5 -3 -14 5 -16 13 -16
12 -5 -8 10 -19 9 -22 -4 -17 -10 4 -15 2 -13 -7 2 -8 -5 -13 -15 -13 -15 2
-16 -1 -5 -13 10 -13 8 -19 -11 -34 -13 -11 -19 -19 -15 -19 5 0 1 -5 -9 -11
-9 -6 -15 -14 -12 -19 3 -4 -2 -10 -10 -14 -8 -3 -15 -14 -15 -25 0 -11 -7
-26 -15 -35 -8 -8 -15 -23 -15 -33 0 -15 -2 -16 -10 -3 -8 13 -10 12 -11 -5
-1 -11 -1 -23 0 -27 0 -5 -3 -8 -8 -8 -12 0 -42 -60 -36 -70 3 -4 -7 -15 -21
-25 -15 -10 -23 -22 -20 -31 3 -9 -1 -14 -12 -14 -15 0 -15 -2 -2 -10 13 -9
13 -11 0 -20 -8 -5 -11 -10 -7 -10 5 0 1 -7 -7 -16 -9 -8 -14 -19 -11 -24 3
-4 -2 -11 -11 -14 -14 -5 -14 -9 -3 -23 10 -12 10 -14 1 -9 -7 4 -12 1 -12 -8
0 -9 -5 -16 -11 -16 -6 0 -9 -7 -5 -15 3 -8 1 -15 -5 -15 -6 0 -8 -4 -5 -9 4
-5 2 -11 -4 -13 -6 -2 -11 -17 -13 -35 -2 -26 -5 -29 -16 -20 -12 10 -13 9 -7
-2 5 -8 3 -17 -5 -22 -11 -7 -11 -9 -1 -9 10 0 10 -4 -2 -15 -8 -8 -13 -25
-11 -36 4 -18 2 -19 -12 -7 -12 9 -14 9 -9 1 4 -7 2 -22 -4 -33 -8 -14 -8 -20
0 -20 6 0 8 -5 5 -10 -4 -6 -11 -8 -16 -5 -5 4 -9 2 -9 -4 0 -5 5 -13 11 -17
7 -4 2 -15 -15 -31 -22 -20 -24 -27 -15 -45 9 -16 8 -19 -2 -13 -9 6 -11 3 -6
-8 4 -12 1 -17 -11 -18 -9 0 -12 -3 -6 -5 14 -6 -6 -74 -21 -74 -5 0 -3 -5 5
-10 10 -6 11 -10 3 -10 -7 0 -13 -8 -13 -18 0 -10 -5 -23 -12 -30 -9 -9 -9
-12 2 -12 11 -1 10 -3 -3 -11 -14 -8 -16 -14 -6 -25 9 -11 9 -14 0 -14 -7 0
-10 -4 -6 -9 3 -5 0 -13 -6 -17 -8 -4 -7 -9 2 -15 10 -6 11 -9 2 -9 -7 0 -13
-9 -13 -19 0 -11 -6 -22 -12 -24 -10 -4 -9 -6 1 -6 11 -1 11 -4 1 -16 -7 -8
-9 -15 -5 -15 4 0 1 -8 -6 -17 -10 -11 -10 -14 -1 -9 6 4 12 2 12 -3 0 -6 -5
-11 -12 -11 -6 0 -8 -3 -5 -7 4 -3 2 -12 -4 -19 -7 -8 -7 -14 1 -19 8 -5 8
-11 -1 -21 -6 -8 -12 -30 -13 -48 0 -19 -4 -38 -8 -42 -4 -4 -2 -14 5 -22 9
-13 9 -14 -1 -8 -8 5 -12 -3 -14 -28 -2 -58 -3 -61 -13 -68 -6 -5 -4 -8 5 -8
13 0 13 -1 0 -10 -12 -8 -12 -10 -1 -10 10 0 11 -3 2 -14 -9 -10 -9 -16 -1
-21 8 -5 8 -11 1 -19 -6 -7 -8 -16 -4 -19 3 -4 2 -7 -4 -7 -5 0 -7 -14 -5 -31
4 -25 2 -30 -9 -24 -12 8 -12 6 0 -8 11 -14 11 -17 0 -17 -9 0 -10 -3 -4 -8
12 -8 13 -22 2 -39 -5 -7 -4 -13 0 -13 5 0 9 -9 9 -19 0 -15 -4 -17 -13 -10
-9 8 -10 4 -3 -19 4 -17 6 -33 2 -36 -3 -3 0 -6 8 -6 10 0 10 -3 -1 -16 -10
-13 -10 -17 0 -23 10 -7 10 -13 2 -30 -9 -16 -9 -21 0 -21 8 0 7 -5 -2 -17
-12 -15 -12 -16 1 -8 13 8 13 7 1 -8 -11 -14 -11 -17 0 -17 12 0 12 -2 0 -9
-10 -7 -10 -10 -1 -13 10 -3 10 -9 1 -26 -9 -17 -9 -22 0 -22 8 0 7 -5 -2 -17
-12 -15 -12 -16 1 -8 13 8 13 7 1 -8 -11 -14 -11 -17 0 -17 12 0 12 -2 0 -9
-11 -7 -11 -10 0 -15 10 -4 11 -7 2 -12 -8 -4 -9 -13 -2 -30 11 -31 11 -37 1
-30 -5 3 -9 -1 -9 -9 0 -8 5 -15 11 -15 6 0 4 -5 -4 -10 -8 -5 -10 -10 -4 -10
7 0 11 -11 10 -24 0 -13 -4 -22 -8 -19 -5 2 -8 -1 -8 -6 0 -6 4 -11 9 -11 10
0 9 -26 -2 -36 -4 -4 -7 -12 -7 -18 0 -6 4 -5 9 2 6 10 10 7 13 -12 3 -14 1
-23 -3 -20 -5 3 -9 0 -9 -5 0 -6 5 -11 10 -11 7 0 7 -6 0 -20 -9 -16 -8 -20 7
-21 11 0 13 -3 6 -6 -17 -6 -17 -33 0 -33 8 0 7 -4 -3 -10 -12 -8 -12 -10 -1
-10 10 0 11 -3 2 -13 -6 -8 -8 -17 -4 -21 11 -11 12 -36 1 -36 -5 0 -3 -6 5
-14 9 -9 12 -26 9 -42 -3 -19 -1 -25 7 -20 6 4 11 3 11 -3 0 -5 -5 -13 -10
-16 -8 -5 -7 -11 0 -20 7 -8 9 -19 5 -25 -3 -5 -2 -10 3 -10 5 0 8 -11 7 -25
-2 -14 2 -25 8 -25 7 0 6 -4 -3 -10 -12 -8 -12 -10 2 -15 10 -4 14 -14 11 -26
-3 -11 0 -19 7 -19 10 0 10 -3 0 -15 -7 -9 -8 -15 -2 -15 5 0 9 -14 8 -31 -1
-18 3 -33 11 -36 10 -4 11 -9 2 -19 -9 -11 -9 -13 2 -9 10 4 14 -3 15 -22 0
-16 4 -37 9 -47 6 -15 5 -17 -5 -11 -8 5 -3 -7 10 -25 13 -19 18 -30 9 -26 -7
4 -5 0 5 -8 19 -15 19 -16 1 -16 -18 0 -18 -1 1 -15 10 -8 15 -15 9 -15 -5 0
-3 -5 5 -10 11 -7 11 -10 2 -10 -8 0 -6 -8 7 -21 15 -17 18 -26 10 -40 -7 -14
-5 -21 10 -28 12 -7 17 -19 16 -36 -2 -14 0 -23 5 -20 4 3 11 -2 14 -11 3 -8
2 -13 -3 -10 -5 4 -4 -5 2 -18 7 -13 16 -22 22 -19 5 3 5 0 -2 -7 -9 -10 -9
-16 2 -27 8 -7 12 -20 9 -28 -4 -8 1 -17 9 -21 9 -3 13 -12 10 -21 -4 -11 -3
-14 6 -9 8 5 12 3 10 -5 -3 -27 1 -50 9 -45 4 2 9 -5 9 -17 1 -12 7 -23 13
-25 5 -2 10 -12 10 -23 0 -10 6 -19 13 -19 8 0 7 -4 -3 -10 -11 -7 -11 -10 -2
-10 7 0 10 -5 7 -10 -4 -6 -1 -9 6 -8 8 2 14 -7 15 -21 1 -13 6 -26 11 -30 5
-3 15 -21 22 -38 7 -18 18 -30 23 -27 6 4 5 -3 -1 -15 -10 -18 -9 -20 6 -14
10 3 15 3 11 -1 -4 -5 2 -18 13 -29 11 -12 17 -27 14 -35 -3 -8 0 -10 7 -6 8
5 9 2 5 -10 -4 -10 -3 -15 3 -11 6 3 10 -1 10 -9 0 -9 6 -16 14 -16 9 0 12 -7
9 -20 -3 -11 0 -20 6 -20 6 0 11 -6 11 -12 0 -7 14 -29 30 -48 16 -19 30 -41
30 -47 0 -7 5 -13 11 -13 5 0 7 -4 4 -10 -3 -5 1 -10 10 -10 9 0 13 -4 10 -10
-3 -5 1 -10 9 -10 9 0 16 -5 16 -11 0 -5 -6 -7 -12 -3 -7 4 -2 -5 12 -19 52
-55 60 -67 48 -68 -7 0 -3 -4 10 -9 12 -5 22 -17 22 -25 0 -10 5 -13 12 -9 7
4 10 3 5 -1 -4 -5 0 -17 10 -27 9 -10 13 -18 10 -18 -4 0 7 -13 23 -28 16 -16
27 -32 23 -35 -3 -4 1 -7 11 -7 9 0 14 -4 11 -10 -3 -5 -1 -10 4 -10 6 0 11
-7 11 -16 0 -10 5 -14 16 -10 8 3 12 2 9 -4 -3 -6 -1 -10 4 -10 6 0 11 -9 11
-21 0 -11 3 -18 7 -16 5 2 22 -11 40 -30 18 -18 29 -33 26 -33 -4 0 3 -9 15
-20 12 -12 22 -25 22 -30 0 -5 7 -6 17 -3 10 4 14 2 10 -4 -4 -6 0 -14 9 -17
8 -3 12 -10 9 -16 -3 -5 -1 -10 5 -10 13 0 126 -112 123 -122 -2 -4 5 -4 14
-1 12 5 15 2 10 -10 -3 -9 -3 -16 1 -16 21 3 32 -3 32 -17 0 -8 4 -13 9 -9 6
3 15 -4 21 -15 6 -11 15 -18 21 -15 5 4 9 -2 9 -11 0 -10 3 -15 6 -11 8 8 34
-18 34 -33 0 -6 4 -9 9 -6 5 3 14 -1 21 -9 7 -8 17 -12 24 -8 6 3 8 3 4 -2 -9
-10 17 -35 37 -35 9 0 14 -4 11 -9 -3 -5 2 -15 11 -22 14 -12 16 -12 8 1 -9
16 -1 10 60 -46 17 -16 31 -27 33 -26 8 7 22 0 17 -8 -6 -9 7 -14 21 -7 3 1
10 -6 15 -16 6 -9 14 -15 20 -12 5 4 9 -4 9 -16 0 -16 3 -19 13 -11 13 11 42
-10 30 -22 -4 -3 3 -6 15 -6 12 0 22 -4 22 -10 0 -5 9 -10 20 -10 11 0 20 -7
20 -15 0 -8 3 -14 8 -13 18 5 52 -15 52 -30 0 -13 2 -14 9 -4 7 11 9 11 14 -2
4 -9 14 -16 22 -16 9 0 23 -7 32 -15 8 -8 19 -13 24 -10 5 4 9 1 9 -4 0 -6 7
-11 15 -11 8 0 15 -5 15 -11 0 -5 5 -7 10 -4 6 3 10 1 10 -5 0 -7 7 -10 15 -6
14 5 20 -6 16 -28 -1 -5 6 -3 15 5 15 12 17 12 9 0 -6 -11 -4 -13 8 -8 10 3
17 3 17 -1 0 -4 15 -12 33 -18 17 -5 31 -15 30 -21 -2 -8 4 -10 14 -6 10 4 14
2 10 -4 -4 -6 4 -10 20 -10 15 0 29 -6 31 -12 2 -6 8 -9 13 -5 5 3 9 1 9 -5 0
-6 7 -7 17 -4 11 4 14 3 9 -5 -5 -8 1 -12 18 -12 14 0 26 -4 26 -9 0 -5 14
-11 31 -15 19 -3 28 -10 23 -17 -4 -8 -1 -8 13 -1 15 9 22 7 32 -7 8 -10 23
-17 37 -15 13 1 24 -2 24 -7 0 -5 7 -9 15 -9 8 0 15 -6 15 -12 0 -9 4 -8 10 2
6 10 10 11 10 3 0 -7 7 -13 15 -13 8 0 15 -4 15 -10 0 -5 7 -7 15 -4 9 4 15 0
15 -7 0 -11 2 -11 8 -2 6 9 11 7 20 -7 7 -11 8 -20 4 -20 -5 0 -9 -6 -10 -12
-3 -35 -9 -65 -16 -76 -4 -7 -2 -12 6 -12 10 0 10 -2 -1 -9 -9 -6 -12 -20 -9
-40 2 -17 1 -31 -3 -31 -4 0 -6 -9 -4 -20 2 -11 -2 -20 -8 -20 -7 0 -6 -4 3
-10 10 -6 11 -10 2 -10 -14 0 -12 -21 3 -32 6 -5 6 -8 -1 -8 -6 0 -11 -11 -11
-25 0 -29 13 -32 46 -9 15 11 21 23 18 35 -3 11 -1 17 4 13 5 -3 9 2 9 11 0 9
4 14 9 11 11 -7 33 43 25 57 -4 7 -4 9 1 5 10 -10 36 18 38 41 0 11 5 17 10
14 4 -2 13 9 20 26 6 17 15 31 19 31 4 0 8 7 8 15 0 8 5 15 11 15 5 0 7 5 3
12 -5 7 -3 8 7 2 8 -5 22 -7 31 -6 10 2 27 -2 39 -8 17 -10 20 -9 13 2 -7 11
-5 11 9 0 9 -8 20 -11 25 -8 5 3 18 -1 28 -8 13 -10 23 -11 31 -4 9 7 13 7 13
-2 0 -7 8 -10 20 -7 11 3 20 1 20 -4 0 -5 5 -9 11 -9 5 0 7 5 3 12 -4 6 3 4
16 -5 17 -12 28 -14 43 -6 14 8 17 8 13 0 -5 -7 2 -11 16 -10 29 1 49 -4 67
-15 10 -6 12 -5 7 3 -5 8 0 8 19 -1 22 -10 28 -9 36 3 7 11 9 10 9 -6 0 -17 2
-17 10 -5 6 10 10 11 10 3 0 -8 11 -11 30 -9 17 2 30 -1 30 -7 0 -5 7 -4 15 3
12 10 15 10 15 0 0 -8 3 -10 7 -7 3 4 12 2 20 -5 11 -9 12 -7 7 8 -5 18 -5 18
10 0 9 -11 16 -14 16 -7 0 7 5 9 11 6 6 -4 26 -7 45 -7 19 0 34 -5 34 -10 0
-6 5 -6 14 1 10 9 16 9 21 1 5 -8 11 -8 21 1 8 6 14 7 14 2 0 -5 7 -10 15 -10
8 0 15 5 15 10 0 5 6 4 14 -2 11 -9 15 -9 19 1 4 10 6 10 6 -1 1 -11 4 -11 18
0 11 10 14 10 9 2 -7 -12 6 -18 29 -13 6 1 24 3 40 4 17 0 36 5 44 10 9 6 12
5 7 -2 -9 -14 54 -13 73 2 17 14 15 14 35 -3 15 -13 19 -13 27 0 7 11 9 11 9
0 0 -10 3 -11 13 -2 10 8 17 7 25 -1 9 -9 12 -9 12 1 0 10 3 11 13 2 10 -8 17
-7 25 1 8 8 16 8 28 -3 11 -9 15 -9 10 -2 -5 9 1 12 23 9 23 -2 28 0 24 13 -3
12 0 11 11 -3 9 -11 16 -14 16 -8 0 10 5 10 21 1 12 -6 19 -7 15 -1 -3 5 1 12
9 16 8 3 15 0 15 -6 0 -7 4 -7 13 -1 6 6 29 9 50 9 20 -1 37 2 37 6 0 4 6 5
14 2 8 -3 17 0 21 6 5 8 10 8 20 0 9 -7 15 -8 19 -1 4 6 13 8 21 4 8 -3 15 0
15 7 0 9 4 9 17 -1 10 -8 14 -9 10 -2 -4 6 -3 14 3 18 5 3 10 1 10 -6 0 -10 3
-10 12 -1 9 9 15 9 27 -1 12 -9 13 -9 7 1 -5 8 1 12 18 12 14 0 26 6 26 13 0
9 3 8 9 -2 6 -10 10 -10 16 -1 6 9 10 9 16 -1 7 -11 9 -11 9 -1 0 7 5 10 10 7
6 -3 10 -1 10 5 0 6 5 8 10 5 6 -4 18 -1 27 7 10 7 14 8 10 1 -5 -7 0 -9 13
-6 11 3 17 9 15 14 -3 4 6 6 20 3 14 -2 25 0 25 5 0 6 9 8 20 6 11 -2 20 1 20
7 0 6 6 5 16 -2 8 -8 14 -9 13 -4 -4 21 2 28 11 14 6 -9 10 -11 10 -3 0 7 7
10 15 7 8 -4 15 -2 15 3 0 5 7 10 15 11 8 1 22 3 30 4 8 1 15 8 15 15 0 8 5
11 10 8 6 -4 7 -12 3 -18 -4 -7 0 -6 10 2 9 7 15 17 12 21 -3 5 5 6 17 2 13
-3 19 -1 15 5 -4 6 6 9 23 8 16 -1 27 2 25 6 -3 4 2 10 11 13 10 4 13 2 8 -7
-5 -9 -4 -9 7 0 7 7 21 13 30 13 9 0 22 7 29 15 14 17 35 21 25 4 -4 -6 2 -5
13 2 12 7 18 18 14 24 -3 5 2 4 12 -4 13 -11 16 -11 14 -2 -3 12 15 20 50 23
6 1 12 5 12 10 0 5 5 6 10 3 6 -3 10 -1 10 5 0 6 5 8 10 5 6 -3 10 -1 10 6 0
7 3 9 7 6 3 -4 15 1 26 10 11 10 17 12 13 6 -5 -9 -2 -11 8 -7 9 3 14 10 11
14 -3 4 3 7 13 6 9 0 16 5 14 12 -1 8 2 11 7 8 5 -4 13 -1 16 5 4 5 13 8 20 5
7 -2 16 2 19 11 4 10 15 14 31 11 13 -3 24 -2 23 1 -2 21 4 31 14 25 6 -4 16
-1 22 7 6 8 18 14 26 14 9 0 14 8 12 20 -2 15 -1 17 6 6 11 -15 36 -5 26 10
-3 5 -2 9 3 8 15 -4 66 21 80 39 8 9 11 11 8 4 -6 -11 -3 -11 14 0 12 7 21 17
21 21 0 5 6 7 12 5 7 -3 19 1 26 9 8 7 18 10 24 7 7 -4 8 -2 4 4 -4 7 -2 12 4
12 6 0 8 5 4 12 -4 7 -3 8 4 4 6 -4 22 4 34 16 13 13 28 22 34 20 7 -1 14 5
18 13 3 9 11 13 18 9 8 -5 9 -2 5 10 -4 10 -2 16 6 15 24 -3 38 1 32 10 -3 5
5 13 17 16 13 4 36 21 52 39 15 17 25 24 21 16 -4 -10 -1 -9 8 2 8 10 18 14
22 10 5 -4 5 2 1 13 -4 11 -4 16 0 12 4 -4 13 1 21 11 8 9 12 11 8 5 -3 -7 -1
-13 4 -13 10 0 15 14 12 34 -1 5 7 6 18 3 15 -3 18 -1 14 11 -4 9 -2 13 4 9 6
-4 14 0 17 9 3 9 13 14 21 11 9 -4 12 -1 9 7 -3 8 10 23 30 36 20 12 33 26 29
33 -4 7 0 8 13 3 10 -4 15 -4 12 0 -9 8 16 34 34 34 11 0 11 2 0 9 -10 6 -7
10 12 15 15 4 24 11 21 16 -3 5 4 14 15 20 11 6 19 14 16 18 -6 10 21 32 30
24 4 -4 4 1 1 11 -4 10 -3 16 2 13 4 -3 17 2 27 10 10 9 12 13 4 9 -8 -4 -5 3
8 14 13 11 23 24 23 28 0 4 9 13 19 18 18 10 20 13 20 35 0 5 3 9 8 9 16 -3
32 1 30 9 -3 14 14 42 23 36 5 -3 9 0 9 5 0 12 23 42 60 79 14 14 19 22 11 17
-10 -5 -12 -4 -7 3 4 7 15 12 24 12 15 0 15 2 2 10 -13 8 -12 10 3 10 10 0 15
5 12 10 -3 6 1 13 9 16 9 3 13 10 10 15 -3 5 2 9 11 9 9 0 14 4 11 9 -3 5 1
14 9 21 8 7 12 16 9 21 -3 5 2 9 10 9 9 0 15 6 13 13 -1 6 3 11 9 10 7 -1 11
5 10 15 0 9 4 16 11 15 7 -2 10 3 7 10 -2 7 4 22 16 32 11 10 20 24 20 32 0 7
7 16 15 19 8 4 12 10 9 15 -3 5 0 9 6 9 6 0 8 5 5 10 -3 6 -1 10 5 10 6 0 16
13 21 30 6 17 16 27 22 23 6 -4 8 0 5 9 -4 8 4 26 17 40 18 20 21 28 12 38 -9
10 -9 11 1 6 6 -4 12 -2 12 4 0 6 4 9 9 6 5 -3 8 2 7 12 0 9 4 16 11 15 7 -2
10 7 7 23 -3 14 -1 23 5 20 7 -5 20 18 25 47 0 4 6 11 11 15 6 4 12 16 13 27
2 11 8 22 13 23 5 2 7 8 3 13 -3 5 1 12 10 15 8 3 12 12 9 20 -3 8 0 14 7 14
7 0 10 8 7 20 -3 11 -2 18 2 16 3 -2 11 7 18 20 8 18 8 23 0 18 -7 -3 -3 2 7
10 11 9 16 16 12 16 -5 0 -3 6 3 14 7 8 14 24 16 36 2 12 12 29 22 37 13 11
14 13 3 10 -12 -4 -10 7 9 49 14 29 28 51 32 49 11 -7 5 29 -6 37 -6 4 -2 8 8
8 10 0 15 5 12 10 -4 6 -1 17 5 25 10 12 10 15 -1 15 -8 1 -3 7 11 15 14 8 20
14 15 15 -6 0 -11 9 -11 19 0 11 4 17 8 15 4 -3 8 6 8 20 0 14 5 28 11 31 6 4
8 13 5 21 -3 8 -1 14 4 14 5 0 7 7 4 15 -4 9 0 15 7 15 11 0 11 3 -1 10 -12 7
-12 10 -1 10 7 0 11 6 7 15 -3 8 -1 15 5 15 6 0 9 6 6 14 -3 8 -3 17 1 20 3 4
8 19 10 34 2 14 7 31 12 37 6 7 5 17 -3 25 -10 10 -9 11 2 5 11 -6 13 -4 8 8
-3 10 -2 17 3 17 5 0 7 7 4 15 -4 8 -1 22 6 30 9 11 9 15 1 15 -7 0 -5 10 6
27 10 15 12 24 6 20 -18 -11 -16 4 4 32 9 14 11 21 5 17 -7 -4 -12 -3 -12 3 0
5 6 12 13 14 9 4 8 6 -2 6 -11 1 -11 4 -1 16 7 8 9 15 4 15 -5 0 -2 5 6 10 10
6 11 10 3 10 -7 0 -13 5 -13 11 0 5 5 7 12 3 8 -5 9 -2 5 9 -3 9 -1 19 5 23 7
4 6 9 -2 14 -9 5 -9 13 -2 27 8 15 8 24 -1 33 -9 10 -9 11 2 5 11 -6 13 -1 9
24 -2 17 -1 31 4 31 5 0 7 4 3 9 -3 5 -1 13 5 16 7 5 8 11 1 19 -6 7 -6 17 -1
26 5 9 5 19 -1 26 -7 8 -6 14 1 19 5 3 10 11 10 16 0 6 -6 7 -12 3 -8 -5 -8
-1 1 10 13 15 13 19 0 27 -12 7 -12 9 1 9 9 0 16 9 16 19 0 11 -5 17 -10 14
-6 -4 -6 1 -1 13 4 10 8 36 7 57 0 20 4 37 9 37 6 0 6 7 1 18 -4 9 -8 24 -7
32 1 8 -3 21 -8 28 -7 9 -5 11 8 6 14 -6 16 -4 10 6 -11 17 -14 92 -4 105 9
14 -9 58 -21 50 -5 -3 -10 -1 -10 4 0 6 6 11 13 11 8 0 7 4 -3 10 -13 9 -13
10 0 11 10 0 8 3 -5 9 -19 8 -19 9 -1 9 19 1 19 1 1 14 -17 13 -17 15 3 35 14
14 17 24 11 28 -8 4 -7 9 2 15 10 6 11 9 2 9 -7 0 -13 5 -13 11 0 5 4 7 10 4
6 -3 7 1 4 9 -3 9 -11 16 -18 16 -8 0 -8 2 0 8 13 9 14 42 1 42 -6 0 -5 5 1
13 7 8 7 17 -2 30 -7 9 -11 28 -8 42 2 14 -2 33 -9 42 -8 10 -9 14 -2 10 8 -5
11 0 10 13 -1 11 -5 20 -10 20 -5 0 -5 9 -2 20 4 12 2 20 -5 20 -8 0 -8 5 -1
17 7 13 5 23 -7 37 -9 11 -11 16 -4 12 6 -4 12 -2 12 3 0 6 -5 11 -10 11 -7 0
-7 7 1 21 9 17 8 20 -2 14 -9 -6 -11 -3 -6 8 3 10 2 17 -4 17 -6 0 -7 5 -3 12
4 7 3 8 -5 4 -6 -4 -9 -11 -6 -16 3 -5 0 -12 -6 -16 -8 -4 -9 -3 -5 4 4 7 2
12 -4 12 -7 0 -10 7 -7 15 4 8 2 17 -3 20 -5 3 -7 14 -5 25 2 11 0 20 -6 20
-5 0 -9 4 -9 10 0 5 3 9 8 9 24 -4 32 4 30 30 -1 16 -5 28 -9 25 -4 -2 -8 4
-8 13 -1 36 -4 53 -10 53 -4 0 -8 12 -9 28 -1 15 -7 29 -12 30 -6 2 -10 8 -10
13 0 6 4 8 10 4 5 -3 3 7 -5 21 -8 15 -12 31 -9 36 3 4 0 8 -6 8 -7 0 -10 6
-7 14 3 7 -2 24 -11 37 -9 13 -15 34 -14 46 2 13 -1 23 -7 23 -5 0 -8 9 -6 19
2 11 -3 25 -11 32 -8 6 -14 24 -14 40 0 16 -5 29 -12 29 -9 0 -8 4 2 10 13 8
12 10 -4 10 -11 0 -16 3 -13 7 4 3 1 13 -6 21 -10 13 -9 14 1 8 11 -7 11 -4 0
15 -7 13 -17 27 -21 30 -5 3 -8 9 -7 13 4 15 -20 66 -31 66 -8 0 -7 5 2 17 10
11 10 14 2 9 -8 -4 -13 -1 -13 9 0 9 -7 23 -15 32 -9 8 -19 28 -22 44 -3 16
-9 29 -14 29 -5 0 -9 12 -9 26 0 14 -4 23 -10 19 -5 -3 -10 3 -10 14 0 12 -5
21 -11 21 -8 0 -7 6 2 17 8 9 10 14 4 11 -5 -3 -19 6 -29 20 -11 14 -14 22 -8
18 7 -4 12 -2 12 3 0 6 -7 11 -16 11 -10 0 -14 6 -11 15 4 8 1 17 -5 21 -7 5
-8 2 -3 -6 6 -9 4 -11 -4 -6 -7 5 -10 14 -7 22 3 8 1 14 -5 14 -6 0 -7 5 -4
10 3 6 -1 10 -10 10 -9 0 -13 5 -10 10 3 6 1 10 -5 10 -6 0 -8 5 -5 10 3 6 1
10 -5 10 -6 0 -8 5 -5 10 3 6 1 10 -4 10 -6 0 -11 7 -11 15 0 9 -6 18 -14 21
-9 3 -12 12 -9 21 4 11 2 14 -5 9 -7 -4 -12 -2 -12 3 0 21 -3 26 -21 39 -11 7
-19 20 -19 28 0 8 -4 14 -10 14 -5 0 -10 7 -10 15 0 8 -5 15 -11 15 -5 0 -7 5
-4 10 3 6 -1 10 -9 10 -9 0 -16 7 -16 15 0 8 -5 15 -11 15 -6 0 -9 7 -5 15 3
9 0 15 -9 15 -8 0 -15 6 -15 14 0 7 -11 21 -24 30 -14 8 -27 25 -31 36 -4 11
-11 17 -17 14 -7 -5 -8 -2 -3 6 5 8 -5 24 -29 46 -21 19 -31 34 -24 34 10 0 9
3 -2 10 -9 6 -17 5 -22 -3 -5 -8 -8 -4 -8 11 0 12 -4 22 -10 22 -5 0 -10 7
-10 16 0 8 -4 12 -10 9 -5 -3 -10 -2 -10 4 0 5 -9 12 -19 16 -12 4 -18 12 -14
21 3 8 -1 14 -11 14 -9 0 -16 5 -16 11 0 5 -4 7 -10 4 -6 -4 -7 1 -3 11 5 13
3 16 -10 11 -12 -4 -17 -1 -17 11 0 10 -9 24 -20 32 -11 8 -20 20 -20 28 0 7
-4 10 -10 7 -5 -3 -22 7 -36 22 -14 15 -32 27 -40 25 -8 -2 -12 5 -9 19 3 15
0 19 -10 15 -8 -3 -14 -2 -14 2 3 21 -2 43 -10 38 -4 -3 -21 10 -37 29 -16 19
-34 35 -40 35 -7 0 -14 7 -18 15 -3 8 -12 12 -21 9 -11 -4 -15 0 -15 16 0 11
-4 19 -9 16 -5 -3 -15 2 -22 11 -12 14 -12 16 0 8 10 -5 12 -4 7 4 -4 6 -11 9
-16 6 -5 -3 -11 -1 -15 5 -4 6 -11 8 -16 5 -5 -3 -6 1 -3 9 4 12 0 16 -16 16
-15 0 -20 5 -17 14 4 10 -1 13 -18 11 -14 -1 -22 2 -19 6 3 5 0 9 -6 9 -6 0
-8 5 -5 10 3 6 -1 10 -9 10 -9 0 -16 5 -16 11 0 5 -5 7 -12 3 -7 -5 -9 -2 -5
9 4 10 2 14 -7 11 -7 -2 -23 4 -35 15 -13 12 -27 18 -32 16 -4 -3 -11 0 -15 6
-5 8 -3 9 7 4 12 -8 12 -6 1 8 -8 9 -19 15 -25 14 -7 -1 -11 4 -10 11 2 6 -5
12 -15 12 -10 0 -24 9 -31 19 -8 11 -20 17 -26 15 -7 -3 -15 2 -18 10 -4 9
-13 16 -22 16 -8 0 -15 5 -15 11 0 5 -4 8 -9 4 -5 -3 -21 6 -35 20 -14 14 -26
21 -26 15 0 -6 -7 -4 -16 5 -9 9 -23 14 -30 11 -7 -3 -16 0 -20 6 -4 7 -3 8 4
4 7 -4 12 -3 12 2 0 6 -11 13 -25 16 -17 4 -23 11 -18 19 4 7 -2 5 -12 -3 -10
-8 -16 -10 -12 -4 6 11 -26 28 -45 25 -5 -1 -7 5 -5 12 1 6 -4 11 -10 10 -7
-2 -13 4 -13 13 0 12 -3 14 -13 6 -10 -8 -16 -6 -25 9 -7 11 -20 18 -30 17 -9
-2 -16 2 -15 9 1 6 -5 10 -15 9 -9 -2 -23 4 -30 13 -8 9 -11 11 -8 4 5 -8 0
-8 -18 0 -13 7 -22 15 -20 19 3 4 -2 5 -11 2 -8 -4 -22 -1 -30 6 -8 7 -15 9
-15 4 0 -5 -4 -3 -9 4 -5 8 -20 15 -34 15 -14 1 -23 5 -20 10 2 4 -5 7 -17 7
-11 0 -23 6 -26 14 -3 8 -12 12 -21 9 -8 -3 -18 -2 -22 3 -12 17 -70 33 -75
20 -3 -7 -5 -7 -5 2 -1 7 -5 10 -11 7 -5 -3 -10 1 -10 9 0 9 -5 16 -11 16 -6
0 -7 -6 -2 -12 4 -7 -6 -5 -21 6 -16 10 -25 13 -22 7 5 -7 1 -9 -8 -5 -9 3
-16 10 -16 15 0 5 -5 9 -11 9 -5 0 -7 -6 -4 -12 4 -7 -1 -4 -9 6 -18 22 -46
30 -46 14 0 -6 -9 -1 -20 12 -13 15 -20 18 -20 9 0 -8 -3 -10 -8 -4 -4 6 -13
10 -19 11 -48 4 -49 4 -33 14 13 8 12 10 -2 10 -10 0 -18 5 -18 11 0 5 5 7 12
3 8 -5 9 -2 5 9 -3 9 -1 19 5 23 7 4 6 9 -3 15 -8 5 -9 9 -3 9 7 0 11 19 11
46 0 28 5 49 14 55 12 7 12 9 0 9 -11 0 -11 3 -1 15 10 12 10 15 -1 15 -10 0
-11 2 -2 8 15 9 11 68 -6 85 -10 9 -12 9 -9 -3z m-272 -291 c0 -5 -4 -9 -10
-9 -5 0 -10 5 -10 11 0 8 -6 7 -17 -2 -16 -13 -17 -12 -5 3 13 17 42 14 42 -3z
m30 1 c5 8 9 5 13 -9 3 -12 0 -19 -7 -18 -13 2 -26 18 -25 32 0 6 3 4 6 -4 4
-10 7 -10 13 -1z m-46 -62 c-2 -3 -13 -6 -24 -5 -24 2 -18 13 9 13 11 0 18 -4
15 -8z m1866 -894 c0 -8 -19 -13 -24 -6 -3 5 1 9 9 9 8 0 15 -2 15 -3z m49
-37 c0 -9 -2 -8 -6 1 -2 6 -10 9 -15 6 -7 -4 -8 -2 -4 5 9 13 26 5 25 -12z
m19 -432 c-3 -3 -9 2 -12 12 -6 14 -5 15 5 6 7 -7 10 -15 7 -18z m-4 -24 c-2
-3 -12 3 -22 13 -16 17 -16 18 5 5 12 -7 20 -15 17 -18z m50 11 c3 -5 -1 -9
-9 -9 -8 0 -12 4 -9 9 3 4 7 8 9 8 2 0 6 -4 9 -8z m-91 -17 c-3 -9 -8 -14 -10
-11 -3 3 -2 9 2 15 9 16 15 13 8 -4z m32 -33 c2 -12 -1 -24 -6 -27 -5 -4 -7
-11 -4 -16 11 -17 -2 -9 -21 13 -13 16 -14 19 -2 10 9 -8 19 -9 22 -4 3 6 -1
13 -10 16 -13 5 -14 9 -4 21 15 18 19 16 25 -13z m355 -253 c0 -5 -5 -9 -11
-9 -5 0 -7 -4 -4 -10 3 -5 1 -10 -5 -10 -6 0 -8 -4 -5 -10 3 -5 1 -10 -4 -10
-6 0 -11 5 -11 10 0 6 -5 10 -11 10 -5 0 -7 -6 -3 -12 4 -8 3 -10 -2 -5 -5 5
-10 13 -10 18 -1 5 -2 10 -3 12 -2 1 -4 13 -7 27 -3 19 -2 21 6 10 7 -12 10
-12 10 -1 0 7 6 11 14 8 11 -4 13 -1 10 11 -4 12 1 10 15 -7 12 -13 21 -27 21
-32z m-97 -392 c3 -8 -1 -14 -8 -14 -7 0 -11 6 -8 14 3 7 6 13 8 13 2 0 5 -6
8 -13z m-3 -47 c0 -5 -2 -10 -4 -10 -3 0 -8 5 -11 10 -3 6 -1 10 4 10 6 0 11
-4 11 -10z m22 -35 c3 3 3 -6 0 -20 -2 -14 -8 -28 -13 -31 -5 -3 -9 -10 -9
-16 0 -6 7 -5 18 3 9 7 14 9 10 5 -4 -5 -2 -16 5 -24 9 -13 9 -14 0 -8 -7 4
-13 2 -13 -3 0 -6 -5 -11 -11 -11 -5 0 -8 4 -4 9 3 5 1 12 -4 16 -5 3 -9 14
-8 25 1 10 5 16 9 14 4 -3 8 4 8 15 0 12 -3 20 -7 20 -17 -3 -24 2 -18 11 5 8
11 8 19 1 7 -6 15 -8 18 -6z m-68 -45 c-6 -6 -15 -5 -24 1 -13 9 -12 10 3 5 9
-3 17 0 17 6 0 6 3 8 7 5 4 -4 2 -12 -3 -17z m23 -10 c-1 -11 -5 -20 -9 -20
-10 0 -10 4 -2 24 8 22 13 20 11 -4z m452 -47 c11 -24 11 -25 -5 -12 -11 9
-15 9 -10 2 4 -7 2 -21 -3 -30 -6 -10 -11 -13 -11 -8 0 6 -4 4 -9 -3 -7 -11
-13 -9 -29 9 -25 26 -23 61 2 65 10 1 20 5 23 8 10 10 30 -6 42 -31z m-430 10
c-4 -22 2 -33 14 -27 9 6 9 5 0 -8 -7 -8 -9 -19 -5 -24 4 -4 0 -3 -8 3 -17 13
-25 63 -10 63 6 0 9 -3 9 -7z m491 -348 c7 -9 8 -15 2 -15 -5 0 -12 7 -16 15
-3 8 -4 15 -2 15 2 0 9 -7 16 -15z m-27 -32 c-3 -7 -8 -13 -12 -13 -4 0 -8 6
-8 13 0 8 6 14 13 14 7 0 10 -6 7 -14z m-6643 -69 c0 -8 -19 -13 -24 -6 -3 5
1 9 9 9 8 0 15 -2 15 -3z m-20 -29 c0 -2 -9 -3 -19 -2 -11 0 -18 5 -15 9 4 6
34 0 34 -7z m6960 -101 c0 -1 -5 -6 -12 -10 -7 -5 -8 -3 -3 6 6 10 4 12 -8 7
-10 -4 -16 -2 -14 6 1 7 -4 11 -11 9 -8 -1 -11 2 -7 8 5 8 55 -14 55 -26z
m-925 -154 c3 -5 1 -10 -4 -10 -6 0 -11 5 -11 10 0 6 2 10 4 10 3 0 8 -4 11
-10z m986 -363 c-6 -8 -7 -18 -3 -22 4 -5 1 -5 -6 -1 -10 6 -10 11 -1 22 6 8
14 14 16 14 3 0 0 -6 -6 -13z m-28 -72 c-3 -9 -8 -14 -10 -11 -3 3 -2 9 2 15
9 16 15 13 8 -4z m34 -17 c-3 -8 -6 -5 -6 6 -1 11 2 17 5 13 3 -3 4 -12 1 -19z
m-4073 -106 c3 -5 -1 -9 -9 -9 -8 0 -12 4 -9 9 3 4 7 8 9 8 2 0 6 -4 9 -8z
m3523 -1214 c-3 -8 -6 -5 -6 6 -1 11 2 17 5 13 3 -3 4 -12 1 -19z m51 -16 c15
12 16 11 3 -4 -14 -19 -32 -15 -30 5 0 8 2 8 6 -1 4 -10 8 -10 21 0z m-24 -30
c3 -5 -1 -9 -9 -9 -8 0 -12 4 -9 9 3 4 7 8 9 8 2 0 6 -4 9 -8z m50 0 c2 -4 -5
-9 -17 -9 -17 -2 -19 0 -7 7 18 12 18 12 24 2z"/>
<path d="M7966 7527 c3 -10 9 -15 12 -12 3 3 0 11 -7 18 -10 9 -11 8 -5 -6z"/>
<path d="M8555 6400 c3 -5 8 -10 11 -10 2 0 4 5 4 10 0 6 -5 10 -11 10 -5 0
-7 -4 -4 -10z"/>
</g>
</svg>
